
<svg xmlns="http://www.w3.org/2000/svg" xml:space="preserve" viewBox="0 0 1024 1024"><path d="M203 799A161 161 0 0 1 95 686c-4-13-7-27-7-41-1-4 1-7 5-9 4-1 6 2 8 4 18 19 39 29 64 33l27 3c28 1 53 10 76 28 1 1 2 2 5 2 3-4 2-10 2-14 4-22 14-41 28-58 10-12 22-23 31-36 8-13 15-26 17-42l2-22c0-3 0-5 3-6 2-1 5-1 7 1 7 6 11 13 17 20a161 161 0 0 1 9 175c-11 20-26 38-42 55l-5 6c-1 2 0 3 1 5 7 10 16 19 25 27 14 13 29 23 48 28 22 6 42 3 59-13 14-13 21-29 25-47 5-28 0-54-6-80-4-20-10-40-13-60-1-8-3-15-2-23 0-8-2-16-1-24a231 231 0 0 1 27-111 114 114 0 0 0 13-79l-9-33c0-2 0-4-2-4-2-1-3 1-4 2l-20 24c-11 13-20 27-32 39a38 38 0 0 1-45 9l-53-24-42-20c-10-5-21-4-32-3-9 1-17 2-26 1-7 0-10-7-6-14 8-17 21-27 39-31 14-3 28 1 41 5l78 23c5 1 10-1 13-5l56-85a75 75 0 0 1 68-36h100c18 0 36 4 50 16 7 5 13 12 18 19 12 17 22 35 34 51l19 29 4 5c4 6 10 8 17 5l76-23c10-3 21-5 31-5 16 0 28 6 38 18 4 4 7 8 9 13 4 9 1 16-10 15l-28-2c-12-1-23 3-34 8l-60 28c-9 5-18 10-28 13-16 5-30 1-42-10a933 933 0 0 0-53-63c-2-1-3-3-5-3l-8 29c-7 28-4 56 8 83a241 241 0 0 1 28 90 449 449 0 0 1-62 276c-16 22-34 42-57 58a211 211 0 0 1-161 28 202 202 0 0 1-91-55c-17-18-31-39-42-62-2-5-5-7-11-7-24 0-47-2-70-8l-9-3zm460-666c10 28 6 53-11 76a71 71 0 0 1-48 27c-28 4-50-5-69-26a73 73 0 0 1-17-40 74 74 0 0 1 72-84 73 73 0 0 1 74 47z" fill="#fff"/></svg>